HIERARCHY
ROOT Hips
{
	OFFSET 0.000000 0.000000 0.000000
	CHANNELS 6 Xposition Yposition Zposition Zrotation Yrotation Xrotation 
	JOINT LHipJoint
	{
		OFFSET 0.000000 0.000000 0.000000
		CHANNELS 3 Zrotation Yrotation Xrotation
		JOINT LeftUpLeg
		{
			OFFSET 1.363060 -1.794630 0.839290
			CHANNELS 3 Zrotation Yrotation Xrotation
			JOINT LeftLeg
			{
				OFFSET 2.448110 -6.726130 0.000000
				CHANNELS 3 Zrotation Yrotation Xrotation
				JOINT LeftFoot
				{
					OFFSET 2.562200 -7.039590 0.000000
					CHANNELS 3 Zrotation Yrotation Xrotation
					JOINT LeftToeBase
					{
						OFFSET 0.157640 -0.433110 2.322550
						CHANNELS 3 Zrotation Yrotation Xrotation
						End Site
						{
							OFFSET 0.000000 0.000000 0.000000
						}
					}
				}
			}
		}
	}
	JOINT RHipJoint
	{
		OFFSET 0.000000 0.000000 0.000000
		CHANNELS 3 Zrotation Yrotation Xrotation
		JOINT RightUpLeg
		{
			OFFSET -1.305520 -1.794630 0.839290
			CHANNELS 3 Zrotation Yrotation Xrotation
			JOINT RightLeg
			{
				OFFSET -2.542530 -6.985550 0.000000
				CHANNELS 3 Zrotation Yrotation Xrotation
				JOINT RightFoot
				{
					OFFSET -2.568260 -7.056230 0.000000
					CHANNELS 3 Zrotation Yrotation Xrotation
					JOINT RightToeBase
					{
						OFFSET -0.164730 -0.452590 2.363150
						CHANNELS 3 Zrotation Yrotation Xrotation
						End Site
						{
							OFFSET 0.000000 0.000000 0.000000
						}
					}
				}
			}
		}
	}
	JOINT LowerBack
	{
		OFFSET 0.000000 0.000000 0.000000
		CHANNELS 3 Zrotation Yrotation Xrotation
		JOINT Spine
		{
			OFFSET 0.028270 2.035590 -0.193380
			CHANNELS 3 Zrotation Yrotation Xrotation
			JOINT Spine1
			{
				OFFSET 0.056720 2.048850 -0.042750
				CHANNELS 3 Zrotation Yrotation Xrotation
				JOINT Neck
				{
					OFFSET 0.000000 0.000000 0.000000
					CHANNELS 3 Zrotation Yrotation Xrotation
					JOINT Neck1
					{
						OFFSET -0.054170 1.746240 0.172020
						CHANNELS 3 Zrotation Yrotation Xrotation
						JOINT Head
						{
							OFFSET 0.104070 1.761360 -0.123970
							CHANNELS 3 Zrotation Yrotation Xrotation
							End Site
							{
								OFFSET 0.000000 0.000000 0.000000
							}
						}
					}
				}
				JOINT LeftShoulder
				{
					OFFSET 0.000000 0.000000 0.000000
					CHANNELS 3 Zrotation Yrotation Xrotation
					JOINT LeftArm
					{
						OFFSET 3.362410 1.200890 -0.311210
						CHANNELS 3 Zrotation Yrotation Xrotation
						JOINT LeftForeArm
						{
							OFFSET 4.983000 -0.000000 -0.000000
							CHANNELS 3 Zrotation Yrotation Xrotation
							JOINT LeftHand
							{
								OFFSET 3.483560 -0.000000 -0.000000
								CHANNELS 3 Zrotation Yrotation Xrotation
								JOINT LeftFingerBase
								{
									OFFSET 0.000000 0.000000 0.000000
									CHANNELS 3 Zrotation Yrotation Xrotation
									JOINT LeftHandIndex1
									{
										OFFSET 0.715260 -0.000000 -0.000000
										CHANNELS 3 Zrotation Yrotation Xrotation
										End Site
										{
											OFFSET 0.000000 0.000000 0.000000
										}
									}
								}
								JOINT LThumb
								{
									OFFSET 0.000000 0.000000 0.000000
									CHANNELS 3 Zrotation Yrotation Xrotation
									End Site
									{
										OFFSET 0.000000 0.000000 0.000000
									}
								}
							}
						}
					}
				}
				JOINT RightShoulder
				{
					OFFSET 0.000000 0.000000 0.000000
					CHANNELS 3 Zrotation Yrotation Xrotation
					JOINT RightArm
					{
						OFFSET -3.136600 1.374050 -0.404650
						CHANNELS 3 Zrotation Yrotation Xrotation
						JOINT RightForeArm
						{
							OFFSET -5.241900 -0.000000 -0.000000
							CHANNELS 3 Zrotation Yrotation Xrotation
							JOINT RightHand
							{
								OFFSET -3.444170 -0.000000 -0.000000
								CHANNELS 3 Zrotation Yrotation Xrotation
								JOINT RightFingerBase
								{
									OFFSET 0.000000 0.000000 0.000000
									CHANNELS 3 Zrotation Yrotation Xrotation
									JOINT RightHandIndex1
									{
										OFFSET -0.622530 -0.000000 -0.000000
										CHANNELS 3 Zrotation Yrotation Xrotation
										End Site
										{
											OFFSET 0.000000 0.000000 0.000000
										}
									}
								}
								JOINT RThumb
								{
									OFFSET 0.000000 0.000000 0.000000
									CHANNELS 3 Zrotation Yrotation Xrotation
									End Site
									{
										OFFSET 0.000000 0.000000 0.000000
									}
								}
							}
						}
					}
				}
			}
		}
	}
}
MOTION
Frames: 6
Frame Time: 0.008333
1.218197 17.477220 0.711473 178.023844 -58.506242 -158.500501 -11.641430 4.674985 -0.538370 -18.048653 34.154643 -26.097340 -4.293073 -0.645862 2.354692 1.764898 13.985345 4.960030 3.201500 0.000001 -53.465400 9.182481 -1.928878 7.029986 -0.832938 5.670040 -23.061645 3.195557 2.335415 -5.746370 1.124653 2.236276 12.499525 -0.306000 0.000000 -69.044700 -2.056258 -8.913314 -10.127085 -0.545522 -8.778960 -3.893300 -7.796244 -8.661878 1.515823 20.453393 -17.169130 -7.991492 -0.931799 -0.060104 -0.019972 0.000000 0.000000 0.000000 26.918836 -13.171768 4.651428 -2.751335 -26.069168 -36.671426 -2.918280 4.060264 -0.033660 -7.097449 18.180735 -1.133179 -0.069562 -0.098909 -0.000000 0.000000 0.000000 0.000000 0.000000 0.000000 0.000000 11.007238 -20.098756 -3.532686 79.974493 28.508847 35.433604 -177.946098 54.992210 179.709401 -39.416036 36.853270 -14.520079 0.857228 -1.640342 -0.000000 0.000000 0.000000 0.000000 0.000000 0.000000 0.000000 
1.216347 17.471687 0.709918 178.246795 -57.748021 -159.089724 -11.684236 4.692330 -0.690002 -17.795999 34.885901 -25.448952 -4.284868 -0.653759 2.056950 1.770307 14.124329 4.904121 3.197700 0.000000 -53.300100 9.153475 -1.957662 7.121356 -0.926718 6.292595 -22.712687 3.163345 2.309857 -5.700163 1.114391 2.225021 12.383315 -0.306601 0.000000 -69.073700 -1.700878 -8.656807 -10.061651 -0.492461 -8.557392 -3.845499 -7.786708 -8.430039 1.801739 19.851494 -17.374462 -8.126143 -0.917230 -0.056311 -0.059185 0.000000 0.000000 0.000000 26.296571 -11.837330 4.752642 -4.479853 -27.224960 -35.505787 -3.143107 2.628849 -0.028010 -10.720624 20.402092 -1.942202 -0.023860 -0.112863 -0.000000 0.000000 0.000000 0.000000 0.000000 0.000000 0.000000 10.182612 -20.213835 -3.611166 80.512843 27.867513 35.496123 -177.869487 54.850310 179.706342 -38.378297 36.640952 -14.033997 0.832523 -1.642857 -0.000000 0.000000 0.000000 0.000000 0.000000 0.000000 0.000000 
1.215398 17.465412 0.708605 178.433914 -57.014668 -159.651755 -11.724825 4.702361 -0.846757 -17.531058 35.570689 -24.803863 -4.269918 -0.658437 1.823765 1.787234 14.336309 4.801044 3.200800 -0.000000 -53.077400 9.124645 -1.983442 7.195366 -1.008527 6.872665 -22.331308 3.134386 2.285568 -5.688595 1.105228 2.234740 12.273359 -0.298100 -0.000000 -69.119601 -1.347207 -8.396799 -9.958253 -0.437894 -8.332294 -3.797303 -7.771857 -8.195033 2.048368 19.248368 -17.549362 -8.245436 -0.907852 -0.053239 -0.093886 0.000000 0.000000 0.000000 25.496149 -10.614701 4.846672 -6.163529 -28.050549 -34.184515 -3.242278 0.447352 -0.023344 -12.861107 21.794211 -2.498086 -0.005063 -0.104767 -0.000000 0.000000 0.000000 0.000000 0.000000 0.000000 0.000000 9.344060 -20.248906 -3.677168 81.000858 27.161991 35.469278 -177.792021 54.663043 179.702995 -37.356678 36.408384 -13.553116 0.808044 -1.645894 -0.000000 0.000000 0.000000 0.000000 0.000000 0.000000 0.000000 
1.214971 17.458457 0.707819 178.585097 -56.323891 -160.176384 -11.763488 4.705696 -1.003679 -17.257460 36.187802 -24.172617 -4.248543 -0.659704 1.659370 1.814874 14.611955 4.651034 3.208399 0.000000 -52.806899 9.096094 -2.004962 7.250572 -1.081733 7.401858 -21.920936 3.108892 2.264098 -5.716806 1.096857 2.257476 12.172495 -0.283800 -0.000001 -69.181001 -0.998848 -8.143889 -9.820408 -0.384018 -8.114269 -3.752220 -7.758987 -7.968108 2.239836 18.659518 -17.683422 -8.336314 -0.903174 -0.051130 -0.120214 0.000000 0.000000 0.000000 24.506427 -9.556136 4.918439 -7.736006 -28.497979 -32.898559 -3.193798 -2.340323 -0.018665 -13.325915 22.363663 -2.654910 -0.005133 -0.079883 -0.000000 0.000000 0.000000 0.000000 0.000000 0.000000 0.000000 8.510732 -20.192108 -3.724630 81.419604 26.397855 35.356912 -177.712973 54.441091 179.699372 -36.406155 36.167213 -13.102621 0.784761 -1.649098 -0.000000 0.000000 0.000000 0.000000 0.000000 0.000000 0.000000 
1.214918 17.450844 0.707615 178.696363 -55.687594 -160.654818 -11.800246 4.703406 -1.156051 -16.980667 36.724267 -23.565723 -4.221729 -0.657473 1.565122 1.851655 14.936955 4.455607 3.216500 0.000000 -52.502300 9.067893 -2.021687 7.287751 -1.150681 7.876699 -21.486559 3.086709 2.246740 -5.788227 1.089147 2.285963 12.082633 -0.266900 0.000001 -69.255000 -0.656993 -7.905552 -9.655182 -0.332479 -7.910655 -3.714492 -7.753644 -7.757279 2.362302 18.092124 -17.770103 -8.385776 -0.904256 -0.050327 -0.134393 0.000000 0.000000 0.000000 23.328390 -8.679932 4.943847 -9.157237 -28.577478 -31.745816 -2.991336 -5.574332 -0.014220 -12.059340 22.044442 -2.358264 -0.018722 -0.039219 -0.000000 0.000000 0.000000 0.000000 0.000000 0.000000 0.000000 7.696139 -20.040132 -3.747749 81.758852 25.585660 35.172546 -177.633268 54.199906 179.695501 -35.577563 35.929762 -12.705200 0.763778 -1.652246 -0.000000 0.000000 0.000000 0.000000 0.000000 0.000000 0.000000 
1.214761 17.442577 0.708021 178.768678 -55.114406 -161.079952 -11.835596 4.697197 -1.297872 -16.708937 37.173298 -22.997148 -4.191177 -0.652024 1.541683 1.895270 15.292391 4.217330 3.220500 0.000000 -52.179400 9.039267 -2.034914 7.310954 -1.219365 8.297227 -21.036739 3.067936 2.234945 -5.905680 1.081694 2.313051 12.005139 -0.250500 -0.000000 -69.335700 -0.318793 -7.684456 -9.475854 -0.283922 -7.724137 -3.688777 -7.759809 -7.565833 2.408133 17.543156 -17.808224 -8.384346 -0.912927 -0.051145 -0.133754 0.000000 0.000000 0.000000 21.970328 -7.969376 4.896635 -10.408429 -28.351641 -30.731764 -2.651464 -9.104915 -0.011945 -9.204841 20.712577 -1.676346 -0.043252 0.019352 0.000000 0.000000 0.000000 0.000000 0.000000 0.000000 0.000000 6.903606 -19.803634 -3.742537 82.018529 24.738949 34.937334 -177.554208 53.956374 179.691387 -34.914475 35.709508 -12.380339 0.746163 -1.655227 -0.000000 0.000000 0.000000 0.000000 0.000000 0.000000 0.000000 
